<svg width="41" height="40" viewBox="0 0 41 40" fill="none" xmlns="../../../../../../external.html?link=http://www.w3.org/2000/svg">
<circle cx="20.5" cy="20" r="20" fill="#D9D9D9"/>
<path d="M10.968 21.6286L18.8781 29.5485C19.0286 29.6927 19.206 29.8058 19.4002 29.8812C19.7853 30.0396 20.2174 30.0396 20.6025 29.8812C20.7967 29.8058 20.9741 29.6927 21.1246 29.5485L29.0347 21.6286C29.1822 21.4809 29.2993 21.3056 29.3791 21.1126C29.4589 20.9196 29.5 20.7128 29.5 20.5039C29.5 20.0821 29.3326 19.6776 29.0347 19.3793C28.7368 19.081 28.3328 18.9135 27.9115 18.9135C27.4902 18.9135 27.0862 19.081 26.7883 19.3793L21.5834 24.6065L21.5834 12.584C21.5834 12.1639 21.4167 11.761 21.12 11.4639C20.8233 11.1669 20.4209 11 20.0013 11C19.5818 11 19.1794 11.1669 18.8827 11.4639C18.586 11.761 18.4193 12.1639 18.4193 12.584L18.4193 24.6065L13.2144 19.3793C13.0674 19.2308 12.8924 19.113 12.6996 19.0326C12.5068 18.9522 12.3 18.9108 12.0912 18.9108C11.8824 18.9108 11.6756 18.9522 11.4828 19.0326C11.29 19.113 11.115 19.2308 10.968 19.3793C10.8197 19.5266 10.702 19.7018 10.6217 19.8948C10.5414 20.0878 10.5 20.2948 10.5 20.5039C10.5 20.7131 10.5414 20.9201 10.6217 21.1131C10.702 21.3061 10.8197 21.4813 10.968 21.6286Z" fill="white"/>
</svg>
