<svg width="45" height="45" viewBox="0 0 45 45" fill="none" xmlns="../../../../../../external.html?link=http://www.w3.org/2000/svg">
<path d="M22.5 0C10.125 0 1.00583e-07 10.125 1.00583e-07 22.5C1.00583e-07 27.675 1.8 32.625 5.175 36.675L0.675 41.175C-0.225 42.075 -0.225 43.425 0.675 44.325C1.125 44.775 1.575 45 2.25 45H22.5C34.875 45 45 34.875 45 22.5C45 10.125 34.875 0 22.5 0ZM13.5 24.75C12.15 24.75 11.25 23.85 11.25 22.5C11.25 21.15 12.15 20.25 13.5 20.25C14.85 20.25 15.75 21.15 15.75 22.5C15.75 23.85 14.85 24.75 13.5 24.75ZM22.5 24.75C21.15 24.75 20.25 23.85 20.25 22.5C20.25 21.15 21.15 20.25 22.5 20.25C23.85 20.25 24.75 21.15 24.75 22.5C24.75 23.85 23.85 24.75 22.5 24.75ZM31.5 24.75C30.15 24.75 29.25 23.85 29.25 22.5C29.25 21.15 30.15 20.25 31.5 20.25C32.85 20.25 33.75 21.15 33.75 22.5C33.75 23.85 32.85 24.75 31.5 24.75Z" fill="#161440"/>
</svg>
