<svg width="14" height="24" viewBox="0 0 14 24" fill="none" xmlns="../../../../../../../external.html?link=http://www.w3.org/2000/svg">
<path d="M12.9 10.8171L3.46668 1.40047C3.31174 1.24425 3.1274 1.12026 2.92431 1.03565C2.72121 0.951035 2.50336 0.907471 2.28334 0.907471C2.06332 0.907471 1.84548 0.951035 1.64238 1.03565C1.43928 1.12026 1.25495 1.24425 1.10001 1.40047C0.789592 1.71274 0.615356 2.13516 0.615356 2.57547C0.615356 3.01578 0.789592 3.4382 1.10001 3.75047L9.35001 12.0838L1.10001 20.3338C0.789592 20.6461 0.615356 21.0685 0.615356 21.5088C0.615356 21.9491 0.789592 22.3715 1.10001 22.6838C1.25437 22.8413 1.43844 22.9666 1.64157 23.0524C1.84469 23.1382 2.06283 23.1829 2.28334 23.1838C2.50386 23.1829 2.72199 23.1382 2.92512 23.0524C3.12824 22.9666 3.31232 22.8413 3.46668 22.6838L12.9 13.2671C13.0692 13.1111 13.2042 12.9216 13.2965 12.7108C13.3889 12.5 13.4366 12.2723 13.4366 12.0421C13.4366 11.812 13.3889 11.5843 13.2965 11.3735C13.2042 11.1626 13.0692 10.9732 12.9 10.8171Z" fill="url(#paint0_linear_84_937)"/>
<defs>
<linearGradient id="paint0_linear_84_937" x1="7.02596" y1="0.907471" x2="7.02596" y2="23.1838" gradientUnits="userSpaceOnUse">
<stop stop-color="#005BA3"/>
<stop offset="1" stop-color="#161440"/>
</linearGradient>
</defs>
</svg>
