<svg width="14" height="24" viewBox="0 0 14 24" fill="none" xmlns="../../../../../../../external.html?link=http://www.w3.org/2000/svg">
<path d="M1.09999 10.8171L10.5333 1.40047C10.6883 1.24425 10.8726 1.12026 11.0757 1.03565C11.2788 0.951035 11.4966 0.907471 11.7167 0.907471C11.9367 0.907471 12.1545 0.951035 12.3576 1.03565C12.5607 1.12026 12.7451 1.24425 12.9 1.40047C13.2104 1.71274 13.3846 2.13516 13.3846 2.57547C13.3846 3.01578 13.2104 3.4382 12.9 3.75047L4.64999 12.0838L12.9 20.3338C13.2104 20.6461 13.3846 21.0685 13.3846 21.5088C13.3846 21.9491 13.2104 22.3715 12.9 22.6838C12.7456 22.8413 12.5616 22.9666 12.3584 23.0524C12.1553 23.1382 11.9372 23.1829 11.7167 23.1838C11.4961 23.1829 11.278 23.1382 11.0749 23.0524C10.8718 22.9666 10.6877 22.8413 10.5333 22.6838L1.09999 13.2671C0.930814 13.1111 0.7958 12.9216 0.703454 12.7108C0.611109 12.5 0.563435 12.2723 0.563435 12.0421C0.563435 11.812 0.611109 11.5843 0.703454 11.3735C0.7958 11.1626 0.930814 10.9732 1.09999 10.8171Z" fill="url(#paint0_linear_84_939)"/>
<defs>
<linearGradient id="paint0_linear_84_939" x1="6.97404" y1="0.907471" x2="6.97404" y2="23.1838" gradientUnits="userSpaceOnUse">
<stop stop-color="#005BA3"/>
<stop offset="1" stop-color="#161440"/>
</linearGradient>
</defs>
</svg>
