<svg width="14" height="14" viewBox="0 0 14 14" fill="none"
  xmlns="http://www.w3.org/2000/svg">
  <path d="M7.44 13.3225L12.984 7.78542C13.0849 7.6801 13.164 7.55591 13.2168 7.41997C13.3277 7.15036 13.3277 6.84795 13.2168 6.57833C13.164 6.4424 13.0849 6.3182 12.984 6.21288L7.44 0.675782C7.33661 0.572527 7.21388 0.490622 7.0788 0.434741C6.94373 0.37886 6.79896 0.350099 6.65275 0.350099C6.35748 0.350099 6.0743 0.46725 5.86551 0.675782C5.65672 0.884313 5.53942 1.16714 5.53942 1.46205C5.53942 1.75696 5.65672 2.03979 5.86551 2.24832L9.52453 5.89173L1.10878 5.89173C0.814711 5.89173 0.532684 6.00841 0.324745 6.21609C0.116806 6.42377 -1.2518e-05 6.70545 -1.24795e-05 6.99915C-1.2441e-05 7.29286 0.116806 7.57454 0.324745 7.78222C0.532684 7.9899 0.814712 8.10657 1.10878 8.10657L9.52453 8.10657L5.86551 11.75C5.76158 11.8529 5.6791 11.9754 5.6228 12.1104C5.56651 12.2453 5.53753 12.3901 5.53753 12.5363C5.53753 12.6824 5.56651 12.8272 5.6228 12.9621C5.6791 13.0971 5.76158 13.2196 5.86551 13.3225C5.96859 13.4263 6.09122 13.5087 6.22634 13.5649C6.36145 13.6212 6.50638 13.6501 6.65275 13.6501C6.79913 13.6501 6.94405 13.6212 7.07917 13.5649C7.21429 13.5087 7.33692 13.4263 7.44 13.3225Z" fill="url(#paint0_linear_84_1314)"/>
  <defs>
    <linearGradient id="paint0_linear_84_1314" x1="13.3" y1="7.0001" x2="-1.24794e-05" y2="7.0001" gradientUnits="userSpaceOnUse">
      <stop stop-color="#005BA3"/>
      <stop offset="1" stop-color="#161440"/>
    </linearGradient>
  </defs>
</svg>
