<svg width="30" height="30" viewBox="0 0 30 30" fill="none"
  xmlns="http://www.w3.org/2000/svg">
  <path d="M15 0C12.0333 0 9.13319 0.879734 6.66645 2.52796C4.19972 4.17618 2.27713 6.51886 1.14181 9.25975C0.00649932 12.0006 -0.290551 15.0166 0.288227 17.9264C0.867006 20.8361 2.29562 23.5088 4.3934 25.6066C6.49119 27.7044 9.16393 29.133 12.0736 29.7118C14.9834 30.2906 17.9994 29.9935 20.7403 28.8582C23.4811 27.7229 25.8238 25.8003 27.472 23.3335C29.1203 20.8668 30 17.9667 30 15C30 11.0218 28.4196 7.20644 25.6066 4.3934C22.7936 1.58035 18.9782 0 15 0ZM15 27.2727C12.5727 27.2727 10.1999 26.5529 8.18164 25.2044C6.1634 23.8559 4.59038 21.9391 3.66148 19.6966C2.73259 17.454 2.48955 14.9864 2.9631 12.6057C3.43664 10.225 4.6055 8.03824 6.32188 6.32187C8.03825 4.6055 10.225 3.43664 12.6057 2.96309C14.9864 2.48954 17.454 2.73258 19.6966 3.66148C21.9391 4.59037 23.8559 6.1634 25.2044 8.18164C26.5529 10.1999 27.2727 12.5727 27.2727 15C27.2727 18.2549 25.9797 21.3765 23.6781 23.6781C21.3765 25.9797 18.2549 27.2727 15 27.2727ZM17.7273 8.18182V6.81818C17.7273 6.45652 17.5836 6.10968 17.3279 5.85394C17.0721 5.59821 16.7253 5.45454 16.3636 5.45454C16.002 5.45454 15.6551 5.59821 15.3994 5.85394C15.1437 6.10968 15 6.45652 15 6.81818V8.18182H13.6364V6.81818C13.6364 6.45652 13.4927 6.10968 13.237 5.85394C12.9812 5.59821 12.6344 5.45454 12.2727 5.45454C11.9111 5.45454 11.5642 5.59821 11.3085 5.85394C11.0528 6.10968 10.9091 6.45652 10.9091 6.81818V8.18182H9.54546C9.1838 8.18182 8.83695 8.32549 8.58122 8.58122C8.32549 8.83695 8.18182 9.18379 8.18182 9.54545C8.18182 9.90711 8.32549 10.254 8.58122 10.5097C8.83695 10.7654 9.1838 10.9091 9.54546 10.9091H10.9091V19.0909H9.54546C9.1838 19.0909 8.83695 19.2346 8.58122 19.4903C8.32549 19.746 8.18182 20.0929 8.18182 20.4545C8.18182 20.8162 8.32549 21.163 8.58122 21.4188C8.83695 21.6745 9.1838 21.8182 9.54546 21.8182H10.9091V23.1818C10.9091 23.5435 11.0528 23.8903 11.3085 24.1461C11.5642 24.4018 11.9111 24.5455 12.2727 24.5455C12.6344 24.5455 12.9812 24.4018 13.237 24.1461C13.4927 23.8903 13.6364 23.5435 13.6364 23.1818V21.8182H15V23.1818C15 23.5435 15.1437 23.8903 15.3994 24.1461C15.6551 24.4018 16.002 24.5455 16.3636 24.5455C16.7253 24.5455 17.0721 24.4018 17.3279 24.1461C17.5836 23.8903 17.7273 23.5435 17.7273 23.1818V21.8182C18.8123 21.8182 19.8528 21.3872 20.62 20.62C21.3872 19.8528 21.8182 18.8122 21.8182 17.7273C21.8159 16.7199 21.442 15.7488 20.7682 15C21.442 14.2512 21.8159 13.2801 21.8182 12.2727C21.8182 11.1877 21.3872 10.1472 20.62 9.38002C19.8528 8.61282 18.8123 8.18182 17.7273 8.18182ZM17.7273 19.0909H13.6364V16.3636H17.7273C18.0889 16.3636 18.4358 16.5073 18.6915 16.763C18.9472 17.0188 19.0909 17.3656 19.0909 17.7273C19.0909 18.0889 18.9472 18.4358 18.6915 18.6915C18.4358 18.9472 18.0889 19.0909 17.7273 19.0909ZM17.7273 13.6364H13.6364V10.9091H17.7273C18.0889 10.9091 18.4358 11.0528 18.6915 11.3085C18.9472 11.5642 19.0909 11.9111 19.0909 12.2727C19.0909 12.6344 18.9472 12.9812 18.6915 13.237C18.4358 13.4927 18.0889 13.6364 17.7273 13.6364Z" fill="url(#paint0_linear_84_1303)"/>
  <defs>
    <linearGradient id="paint0_linear_84_1303" x1="15" y1="0" x2="15" y2="30" gradientUnits="userSpaceOnUse">
      <stop stop-color="#005BA3"/>
      <stop offset="1" stop-color="#161440"/>
    </linearGradient>
  </defs>
</svg>
